<?xml version="1.0" encoding="iso-8859-1"?>
<!-- Generator: Adobe Illustrator 19.0.0, SVG Export Plug-In . SVG Version: 6.00 Build 0)  -->
<svg xmlns="http://www.w3.org/2000/svg" xmlns:xlink="http://www.w3.org/1999/xlink" version="1.1" id="Layer_1" x="0px" y="0px" viewBox="0 0 512 512" style="enable-background:new 0 0 512 512;" xml:space="preserve" width="512" height="512">
<g>
	<g>
		<path d="M492.637,277.724c-0.039-0.039-0.078-0.077-0.119-0.116c-7.022-6.837-16.376-10.602-26.341-10.602    c-5.328,0-12.416,1.09-20.158,5.202V107.532c0-15.887-12.919-28.814-28.8-28.814h-59.484V55.65    c0-30.686-24.961-55.65-55.642-55.65H146.649c-30.665,0-55.613,24.965-55.613,55.65v23.067H37.3    c-15.881,0-28.8,12.928-28.8,28.814v274.55c0,15.889,12.919,28.815,28.8,28.815h89.331c5.569,0,10.084-4.516,10.084-10.085    s-4.515-10.084-10.084-10.084H37.3c-4.678,0-8.631-3.96-8.631-8.646v-23.467h297.836l23.932,13.623l-19.246,23.035l-39.036-11.29    c-3.615-1.042-7.506,0.008-10.102,2.729l-3.828,4.016h-69.54c-5.569,0-10.085,4.515-10.085,10.084s4.516,10.085,10.085,10.085    h51.671c-0.49,1.492-0.639,3.097-0.393,4.688c0.478,3.094,2.366,5.789,5.109,7.296l30.014,16.494    c-5.482,10.324-6.346,23.007,2.16,32.33c0.041,0.044,0.08,0.088,0.121,0.131c0.482,0.509,0.989,1.008,1.538,1.511    c0.557,0.619,1.168,1.223,1.844,1.826c4.496,4.02,10.157,6.145,16.371,6.145c5.77,0,11.271-1.811,15.934-4.346l16.823,29.889    c1.537,2.73,4.256,4.592,7.357,5.037c0.477,0.068,0.955,0.102,1.432,0.102c2.611,0,5.145-1.016,7.043-2.867l20.158-19.666    c2.689-2.623,3.696-6.525,2.613-10.123L376.76,440.39l22.818-19.501l36.361,62.441c1.568,2.693,4.297,4.512,7.388,4.922    c3.092,0.408,6.199-0.633,8.416-2.824l25.369-25.079c2.697-2.665,3.67-6.616,2.522-10.228l-24.778-77.93l33.97-34.729    C509.281,316.31,506.227,291.4,492.637,277.724z M425.85,107.532v84.811c0,4.768-3.871,8.645-8.631,8.645h-45.695V98.887h45.695    C421.979,98.887,425.85,102.766,425.85,107.532z M103.164,98.887h31.787v102.102h-31.787V98.887z M351.354,98.887v102.102h-31.786    V98.887H351.354z M303.844,78.718H144.899V55.65c0-0.954,0.803-1.761,1.75-1.761h155.444c0.949,0,1.751,0.807,1.751,1.761V78.718z     M83.317,221.157h71.483v21.655H83.317V221.157z M155.12,200.988V98.887h144.278v102.102H155.12z M299.72,221.157h71.483v21.655    H299.72V221.157z M146.649,20.17h155.444c19.56,0,35.473,15.916,35.473,35.48v23.067h-13.553V55.65    c0-12.092-9.834-21.93-21.92-21.93H146.649c-12.086,0-21.919,9.838-21.919,21.93v23.067h-13.525V55.65    C111.204,36.086,127.105,20.17,146.649,20.17z M28.669,107.532c0-4.767,3.872-8.646,8.631-8.646h45.695v102.102H37.3    c-4.759,0-8.631-3.878-8.631-8.645V107.532z M28.669,338.447V219.835c2.726,0.859,5.625,1.322,8.631,1.322h25.847v31.739    c0,5.569,4.515,10.085,10.084,10.085h91.652c5.569,0,10.085-4.516,10.085-10.085v-31.739H279.55v31.739    c0,5.569,4.515,10.085,10.085,10.085h91.652c5.569,0,10.084-4.516,10.084-10.085v-31.739h25.848c3.005,0,5.904-0.463,8.631-1.322    v69.21l-27.333,27.354l-78.121-23.951c-3.627-1.107-7.567-0.094-10.204,2.63l-24.805,25.645c-2.168,2.241-3.176,5.356-2.734,8.441    c0.441,3.085,2.285,5.792,4.994,7.335l3.426,1.949H28.669z M474.366,323.4l-38.167,39.02c-2.607,2.666-3.531,6.554-2.402,10.107    l24.744,77.819l-11.722,11.587l-35.894-61.636c-1.504-2.584-4.078-4.366-7.026-4.867c-2.949-0.496-5.968,0.333-8.239,2.276    l-37.006,31.622c-3.039,2.598-4.256,6.744-3.105,10.572l11.855,39.399l-6.389,6.23l-15.988-28.403    c-1.486-2.64-4.08-4.472-7.064-4.989c-0.573-0.1-1.15-0.148-1.724-0.148c-2.408,0-4.76,0.863-6.608,2.466l-1.273,1.104    c-0.164,0.143-0.324,0.291-0.479,0.444c-3.017,2.981-7.542,5.145-10.759,5.145c-1.582,0-2.365-0.51-2.941-1.024    c-0.209-0.186-0.281-0.27-0.281-0.27c-0.342-0.414-0.716-0.801-1.119-1.156c-0.261-0.229-0.489-0.446-0.683-0.645    c-2.667-3.056,0.59-10.114,4.035-13.669c0.156-0.162,0.308-0.328,0.453-0.5l1.104-1.306c1.957-2.309,2.773-5.375,2.223-8.352    c-0.55-2.977-2.408-5.548-5.061-7.005l-28.579-15.704l6.158-6.459l39.479,11.419c3.841,1.109,7.977-0.154,10.541-3.223    l31.203-37.347c1.915-2.293,2.716-5.317,2.185-8.259c-0.531-2.939-2.339-5.494-4.936-6.973l-36.704-20.89    c-0.096-0.056-0.19-0.113-0.29-0.166L308.923,325.4l11.469-11.857l78.014,23.917c3.572,1.096,7.452,0.127,10.089-2.514    l38.524-38.551c6.1-6.032,12.725-9.222,19.158-9.222c4.65,0,8.983,1.715,12.212,4.826C485.013,298.73,486.32,311.04,474.366,323.4    z"/>
		<path d="M168.989,390.728h-0.17c-5.569,0-10.085,4.515-10.085,10.084s4.516,10.085,10.085,10.085h0.17    c5.569,0,10.084-4.516,10.084-10.085S174.559,390.728,168.989,390.728z"/>
	</g>
</g>















</svg>
